<svg width="24" height="26" viewBox="0 0 24 26" fill="none" xmlns="http://www.w3.org/2000/svg">
<path d="M21.7066 7.03374C22.3028 7.39666 22.6666 8.04414 22.6666 8.74211V22.5001C22.6666 23.6047 21.7712 24.5001 20.6666 24.5001H16.6666C15.5621 24.5001 14.6666 23.6047 14.6666 22.5001V15.5C14.6666 14.3954 13.7712 13.5 12.6666 13.5H11.3333C10.2287 13.5 9.33331 14.3954 9.33331 15.5V22.5001C9.33331 23.6047 8.43788 24.5001 7.33331 24.5001H3.33331C2.22874 24.5001 1.33331 23.6047 1.33331 22.5001V8.74211C1.33331 8.04414 1.69719 7.39666 2.29338 7.03374L10.9601 1.75813C11.5988 1.3693 12.4011 1.3693 13.0399 1.75813L21.7066 7.03374Z" stroke="white" stroke-width="2" stroke-linecap="round" stroke-linejoin="round"/>
</svg>