<svg width="27" height="26" viewBox="0 0 27 26" fill="none" xmlns="http://www.w3.org/2000/svg">
<path d="M13.5001 4.33333C17.297 4.33333 20.3751 7.3181 20.3751 11V14.222C20.3751 14.7224 20.5627 15.2046 20.9008 15.5735L23.571 18.4864C24.4529 19.4485 23.7704 21 22.4652 21H4.53492C3.22977 21 2.54726 19.4485 3.42919 18.4864L6.09937 15.5735C6.43748 15.2046 6.62505 14.7224 6.62506 14.222L6.62508 11C6.62508 7.3181 9.70313 4.33333 13.5001 4.33333ZM13.5001 4.33333V1M1.125 11.6668C1.125 7.50621 3.30854 3.8402 6.625 1.6875M25.875 11.6668C25.875 7.50621 23.6915 3.8402 20.375 1.6875M12.125 25H14.875" stroke="#0C00FF" stroke-width="2" stroke-linecap="round" stroke-linejoin="round"/>
</svg>
