<svg width="27" height="26" viewBox="0 0 27 26" fill="none" xmlns="http://www.w3.org/2000/svg">
<path d="M10.3941 2.55325C10.6024 1.64436 11.4111 1 12.3436 1H14.6565C15.589 1 16.3977 1.64436 16.606 2.55325L17.0076 4.3058C17.9167 4.65092 18.7584 5.12623 19.5084 5.70807L21.3421 5.1484C22.2228 4.87959 23.1733 5.24689 23.6444 6.03812L24.7469 7.88984C25.2375 8.71382 25.0742 9.77006 24.3576 10.4074L23.0174 11.5995C23.0883 12.0563 23.125 12.524 23.125 13C23.125 13.476 23.0883 13.9437 23.0174 14.4005L24.3576 15.5926C25.0742 16.2299 25.2375 17.2862 24.7469 18.1102L23.6444 19.9619C23.1733 20.7531 22.2229 21.1204 21.3421 20.8516L19.5084 20.2919C18.7584 20.8738 17.9167 21.3491 17.0076 21.6942L16.606 23.4468C16.3977 24.3556 15.589 25 14.6565 25H12.3436C11.4111 25 10.6024 24.3556 10.3941 23.4468L9.99246 21.6942C9.08341 21.3491 8.24169 20.8738 7.49169 20.2919L5.65795 20.8516C4.7772 21.1204 3.82674 20.7531 3.35565 19.9619L2.25315 18.1101C1.76256 17.2862 1.92587 16.2299 2.64242 15.5926L3.98268 14.4005C3.91179 13.9437 3.87504 13.476 3.87504 13C3.87504 12.524 3.91179 12.0563 3.98268 11.5995L2.64244 10.4074C1.92589 9.77007 1.76258 8.71383 2.25317 7.88985L3.35567 6.03813C3.82676 5.2469 4.77722 4.8796 5.65797 5.14841L7.4917 5.70808C8.24169 5.12623 9.08341 4.65092 9.99246 4.3058L10.3941 2.55325Z" stroke="#0C00FF" stroke-width="2" stroke-linecap="round" stroke-linejoin="round"/>
<path d="M14.875 13C14.875 13.7364 14.2594 14.3333 13.5 14.3333C12.7406 14.3333 12.125 13.7364 12.125 13C12.125 12.2636 12.7406 11.6667 13.5 11.6667C14.2594 11.6667 14.875 12.2636 14.875 13Z" stroke="#0C00FF" stroke-width="2" stroke-linecap="round" stroke-linejoin="round"/>
</svg>
